<svg width="86" height="86" viewBox="0 0 86 86" fill="none" xmlns="http://www.w3.org/2000/svg">
<path d="M85.538 42.7729C85.538 44.1966 85.4694 45.5996 85.3321 46.982C84.8938 51.4866 83.7346 55.8915 81.8988 60.0283C77.4227 70.1549 69.1934 78.1508 58.9422 82.3339C48.691 86.517 37.217 86.5612 26.9339 82.4572C16.6508 78.3532 8.36016 70.421 3.80612 60.3291C-0.747927 50.2372 -1.21041 38.7724 2.51596 28.3465C2.94854 27.1449 3.42919 25.9639 3.97164 24.8172C7.89668 16.3343 14.4933 9.37134 22.7518 4.9939C31.0103 0.616456 40.4757 -0.934256 49.6993 0.579121C58.9228 2.0925 67.3964 6.5866 73.8231 13.3735C80.2497 20.1605 84.2754 28.8664 85.284 38.1587C85.4489 39.6913 85.5337 41.2315 85.538 42.7729Z" fill="url(#paint0_radial_94_13357)" style="mix-blend-mode:overlay"/>
<defs>
<radialGradient id="paint0_radial_94_13357" cx="0" cy="0" r="1" gradientUnits="userSpaceOnUse" gradientTransform="translate(41.8675 69.298) scale(42.7504)">
<stop stop-color="#00CFC2"/>
<stop offset="0.29" stop-color="#008B82"/>
<stop offset="0.63" stop-color="#00403C"/>
<stop offset="0.88" stop-color="#001211"/>
<stop offset="1"/>
</radialGradient>
</defs>
</svg>
