<svg width="30" height="30" viewBox="0 0 30 30" fill="none" xmlns="http://www.w3.org/2000/svg">
<g filter="url(#filter0_i_1_918)">
<rect width="30" height="30" rx="15" fill="url(#paint0_linear_1_918)"/>
<path d="M16.9688 14.8738L13.9076 11.8126C13.8505 11.7555 13.7828 11.7103 13.7082 11.6794C13.6336 11.6485 13.5536 11.6326 13.4729 11.6326C13.3099 11.6326 13.1535 11.6973 13.0382 11.8126C12.9811 11.8697 12.9359 11.9375 12.905 12.0121C12.8741 12.0866 12.8582 12.1666 12.8582 12.2473C12.8582 12.4104 12.9229 12.5667 13.0382 12.682L15.6709 15.3085L13.0382 17.9351C12.9808 17.992 12.9353 18.0597 12.9042 18.1343C12.8731 18.2089 12.8571 18.2889 12.8571 18.3698C12.8571 18.4506 12.8731 18.5306 12.9042 18.6052C12.9353 18.6798 12.9808 18.7475 13.0382 18.8045C13.0951 18.8618 13.1628 18.9074 13.2375 18.9385C13.3121 18.9696 13.3921 18.9856 13.4729 18.9856C13.5537 18.9856 13.6338 18.9696 13.7084 18.9385C13.783 18.9074 13.8507 18.8618 13.9076 18.8045L16.9688 15.7432C17.0262 15.6863 17.0718 15.6186 17.1028 15.544C17.1339 15.4694 17.1499 15.3894 17.1499 15.3085C17.1499 15.2277 17.1339 15.1477 17.1028 15.0731C17.0718 14.9985 17.0262 14.9308 16.9688 14.8738Z" fill="white"/>
</g>
<defs>
<filter id="filter0_i_1_918" x="0" y="0" width="30" height="34" filterUnits="userSpaceOnUse" color-interpolation-filters="sRGB">
<feFlood flood-opacity="0" result="BackgroundImageFix"/>
<feBlend mode="normal" in="SourceGraphic" in2="BackgroundImageFix" result="shape"/>
<feColorMatrix in="SourceAlpha" type="matrix" values="0 0 0 0 0 0 0 0 0 0 0 0 0 0 0 0 0 0 127 0" result="hardAlpha"/>
<feOffset dy="4"/>
<feGaussianBlur stdDeviation="2"/>
<feComposite in2="hardAlpha" operator="arithmetic" k2="-1" k3="1"/>
<feColorMatrix type="matrix" values="0 0 0 0 1 0 0 0 0 1 0 0 0 0 1 0 0 0 0.25 0"/>
<feBlend mode="normal" in2="shape" result="effect1_innerShadow_1_918"/>
</filter>
<linearGradient id="paint0_linear_1_918" x1="15" y1="3.50177e-07" x2="38.5" y2="109" gradientUnits="userSpaceOnUse">
<stop stop-color="#C887C9"/>
<stop offset="0.25" stop-color="#5784BD"/>
<stop offset="0.6" stop-color="#705DDA"/>
<stop offset="0.75" stop-color="#5784BD"/>
<stop offset="1" stop-color="#73E0A7"/>
</linearGradient>
</defs>
</svg>
