<svg width="40" height="41" viewBox="0 0 40 41" fill="none" xmlns="http://www.w3.org/2000/svg">
<path d="M10.4014 3.375L29.5977 3.375L39.1963 20L29.5977 36.625L10.4014 36.625L0.802735 20L10.4014 3.375Z" fill="#282A47" stroke="url(#paint0_linear_1_1018)" stroke-width="1.3913"/>
<path d="M29.7268 21.957L28.111 18.3162L22.9584 21.4993L27.577 4.64078L25.9612 1L8 20.0499L9.61581 23.6838L16.3911 24.1415L10.1429 37.3662L11.7587 41L29.7268 21.957Z" fill="url(#paint1_linear_1_1018)"/>
<path d="M10.2469 37.5881L28.208 18.5451L28.111 18.3162L22.9584 21.4993L23.8669 18.1706L21.4397 18.0874L26.0652 1.22885L25.9612 1L8 20.0499L8.09709 20.2718L14.8724 20.7295L13.9501 23.975L16.3911 24.1415L10.1429 37.3662L10.2469 37.5881Z" fill="#FFFB21"/>
<path d="M28.111 18.3162L21.3356 17.8585L25.9612 1L8 20.0499L14.7684 20.5007L10.1429 37.3662L28.111 18.3162Z" fill="url(#paint2_linear_1_1018)"/>
<defs>
<linearGradient id="paint0_linear_1_1018" x1="20" y1="40" x2="20" y2="2.94047e-06" gradientUnits="userSpaceOnUse">
<stop stop-color="#C887C9"/>
<stop offset="0.25" stop-color="#5784BD"/>
<stop offset="0.6" stop-color="#705DDA"/>
<stop offset="0.75" stop-color="#5784BD"/>
<stop offset="1" stop-color="#73E0A7"/>
</linearGradient>
<linearGradient id="paint1_linear_1_1018" x1="8" y1="21" x2="29.7268" y2="21" gradientUnits="userSpaceOnUse">
<stop stop-color="#C887C9"/>
<stop offset="0.25" stop-color="#5784BD"/>
<stop offset="0.6" stop-color="#705DDA"/>
<stop offset="0.75" stop-color="#5784BD"/>
<stop offset="1" stop-color="#73E0A7"/>
</linearGradient>
<linearGradient id="paint2_linear_1_1018" x1="8" y1="19.1831" x2="28.111" y2="19.1831" gradientUnits="userSpaceOnUse">
<stop stop-color="#C887C9"/>
<stop offset="0.25" stop-color="#5784BD"/>
<stop offset="0.6" stop-color="#705DDA"/>
<stop offset="0.75" stop-color="#5784BD"/>
<stop offset="1" stop-color="#73E0A7"/>
</linearGradient>
</defs>
</svg>
