<svg width="70" height="70" viewBox="0 0 70 70" fill="none" xmlns="http://www.w3.org/2000/svg">
<path d="M3.17578 36.5C2.67343 35.6299 2.64161 34.5705 3.08105 33.6768L3.17578 33.5L17.7891 8.18945C18.325 7.26126 19.3149 6.68946 20.3867 6.68945L49.6133 6.68945C50.6851 6.68946 51.675 7.26126 52.2109 8.18945L66.8242 33.5C67.3601 34.4282 67.3601 35.5718 66.8242 36.5L52.2109 61.8105C51.675 62.7387 50.6851 63.3105 49.6133 63.3105L20.3867 63.3105C19.3149 63.3105 18.325 62.7387 17.7891 61.8105L3.17578 36.5Z" fill="#282A47" stroke="url(#paint0_linear_39_364)" stroke-width="4"/>
<path d="M23 39H26V45.1215L33.6515 39H41C42.6545 39 44 37.6545 44 36V24C44 22.3455 42.6545 21 41 21H23C21.3455 21 20 22.3455 20 24V36C20 37.6545 21.3455 39 23 39Z" fill="url(#paint1_linear_39_364)"/>
<path d="M41 20.8496C42.7373 20.8496 44.1504 22.2627 44.1504 24V36C44.1504 37.7373 42.7373 39.1504 41 39.1504H33.7031L26.0938 45.2383L25.8496 45.4336V39.1504H23C21.2627 39.1504 19.8496 37.7373 19.8496 36V24C19.8496 22.2627 21.2627 20.8496 23 20.8496H41Z" stroke="white" stroke-opacity="0.86" stroke-width="0.3"/>
<path d="M47 15H29C27.3455 15 26 16.3455 26 18H44C45.6545 18 47 19.3455 47 21V33C48.6545 33 50 31.6545 50 30V18C50 16.3455 48.6545 15 47 15Z" fill="url(#paint2_linear_39_364)"/>
<path d="M47 14.8496C48.7373 14.8496 50.1504 16.2627 50.1504 18V30C50.1504 31.7373 48.7373 33.1504 47 33.1504H46.8496V21C46.8496 19.4283 45.5717 18.1504 44 18.1504H25.8496V18C25.8496 16.2627 27.2627 14.8496 29 14.8496H47Z" stroke="white" stroke-opacity="0.86" stroke-width="0.3"/>
<path d="M12 53.0612V66.3265H55.5913L56.6218 63.2653V50H13.7849L12 53.0612Z" fill="#18192D"/>
<path d="M12.7499 53.4694V65.6735H54.5097L55.4969 62.8572V50.6531H14.4598L12.7499 53.4694Z" stroke="white" stroke-opacity="0.7" stroke-width="0.326531"/>
<path d="M23.754 55.231V60.9185H22.5861V55.231H23.754ZM29.4806 55.231V60.9185H28.3087L26.0236 57.106V60.9185H24.8517V55.231H26.0236L28.3126 59.0474V55.231H29.4806ZM32.7267 58.4224H31.2657L31.2579 57.6177H32.4845C32.7006 57.6177 32.8777 57.5903 33.0157 57.5356C33.1538 57.4784 33.2566 57.3963 33.3243 57.2896C33.3946 57.1802 33.4298 57.0474 33.4298 56.8911C33.4298 56.714 33.3959 56.5708 33.3282 56.4614C33.2631 56.3521 33.1603 56.2726 33.0196 56.2231C32.8816 56.1737 32.7032 56.1489 32.4845 56.1489H31.672V60.9185H30.5001V55.231H32.4845C32.8152 55.231 33.1108 55.2622 33.3712 55.3247C33.6342 55.3872 33.8569 55.4823 34.0392 55.6099C34.2215 55.7375 34.3608 55.8989 34.4571 56.0942C34.5535 56.2869 34.6017 56.5161 34.6017 56.7817C34.6017 57.0161 34.5483 57.2323 34.4415 57.4302C34.3374 57.6281 34.172 57.7896 33.9454 57.9146C33.7215 58.0396 33.4285 58.1086 33.0665 58.1216L32.7267 58.4224ZM32.6759 60.9185H30.9454L31.4025 60.0044H32.6759C32.8816 60.0044 33.0496 59.9718 33.1798 59.9067C33.31 59.839 33.4064 59.7479 33.4689 59.6333C33.5314 59.5187 33.5626 59.3872 33.5626 59.2388C33.5626 59.0721 33.534 58.9276 33.4767 58.8052C33.422 58.6828 33.3334 58.589 33.2111 58.5239C33.0887 58.4562 32.9272 58.4224 32.7267 58.4224H31.5978L31.6056 57.6177H33.0118L33.2814 57.9341C33.6277 57.9289 33.9064 57.9901 34.1173 58.1177C34.3308 58.2427 34.4858 58.4054 34.5821 58.606C34.6811 58.8065 34.7306 59.0213 34.7306 59.2505C34.7306 59.6151 34.6512 59.9224 34.4923 60.1724C34.3334 60.4198 34.1004 60.606 33.7931 60.731C33.4884 60.856 33.116 60.9185 32.6759 60.9185ZM40.2814 57.9419V58.2114C40.2814 58.6437 40.2228 59.0317 40.1056 59.3755C39.9884 59.7192 39.823 60.0122 39.6095 60.2544C39.3959 60.494 39.1407 60.6776 38.8439 60.8052C38.5496 60.9328 38.2228 60.9966 37.8634 60.9966C37.5066 60.9966 37.1798 60.9328 36.8829 60.8052C36.5887 60.6776 36.3334 60.494 36.1173 60.2544C35.9012 60.0122 35.7332 59.7192 35.6134 59.3755C35.4962 59.0317 35.4376 58.6437 35.4376 58.2114V57.9419C35.4376 57.507 35.4962 57.119 35.6134 56.7778C35.7306 56.4341 35.8959 56.1411 36.1095 55.8989C36.3256 55.6567 36.5808 55.4718 36.8751 55.3442C37.172 55.2166 37.4988 55.1528 37.8556 55.1528C38.215 55.1528 38.5418 55.2166 38.8361 55.3442C39.1329 55.4718 39.3881 55.6567 39.6017 55.8989C39.8178 56.1411 39.9845 56.4341 40.1017 56.7778C40.2215 57.119 40.2814 57.507 40.2814 57.9419ZM39.0978 58.2114V57.9341C39.0978 57.632 39.0704 57.3664 39.0157 57.1372C38.9611 56.908 38.8803 56.7153 38.7736 56.5591C38.6668 56.4028 38.5366 56.2856 38.3829 56.2075C38.2293 56.1268 38.0535 56.0864 37.8556 56.0864C37.6577 56.0864 37.4819 56.1268 37.3282 56.2075C37.1772 56.2856 37.0483 56.4028 36.9415 56.5591C36.8374 56.7153 36.7579 56.908 36.7032 57.1372C36.6486 57.3664 36.6212 57.632 36.6212 57.9341V58.2114C36.6212 58.5109 36.6486 58.7765 36.7032 59.0083C36.7579 59.2375 36.8387 59.4315 36.9454 59.5903C37.0522 59.7466 37.1824 59.8651 37.3361 59.9458C37.4897 60.0265 37.6655 60.0669 37.8634 60.0669C38.0613 60.0669 38.2371 60.0265 38.3907 59.9458C38.5444 59.8651 38.6733 59.7466 38.7775 59.5903C38.8816 59.4315 38.9611 59.2375 39.0157 59.0083C39.0704 58.7765 39.0978 58.5109 39.0978 58.2114ZM42.004 55.231L43.0743 57.2153L44.1446 55.231H45.4845L43.8321 58.0513L45.5275 60.9185H44.1759L43.0743 58.895L41.9728 60.9185H40.6134L42.3126 58.0513L40.6564 55.231H42.004Z" fill="white"/>
<defs>
<linearGradient id="paint0_linear_39_364" x1="35" y1="70" x2="35" y2="-1.5299e-06" gradientUnits="userSpaceOnUse">
<stop stop-color="#C887C9"/>
<stop offset="0.25" stop-color="#5784BD"/>
<stop offset="0.6" stop-color="#705DDA"/>
<stop offset="0.75" stop-color="#5784BD"/>
<stop offset="1" stop-color="#73E0A7"/>
</linearGradient>
<linearGradient id="paint1_linear_39_364" x1="20.8572" y1="25.5228" x2="41.9696" y2="61.3346" gradientUnits="userSpaceOnUse">
<stop stop-color="#0FAFFF"/>
<stop offset="1" stop-color="#CC23D1"/>
</linearGradient>
<linearGradient id="paint2_linear_39_364" x1="26.8572" y1="18.375" x2="40.1307" y2="48.5471" gradientUnits="userSpaceOnUse">
<stop stop-color="#0FAFFF"/>
<stop offset="1" stop-color="#CC23D1"/>
</linearGradient>
</defs>
</svg>
