<svg width="70" height="70" viewBox="0 0 70 70" fill="none" xmlns="http://www.w3.org/2000/svg">
<path d="M3.17578 36.5C2.67343 35.6299 2.64161 34.5705 3.08105 33.6768L3.17578 33.5L17.7891 8.18945C18.325 7.26126 19.3149 6.68946 20.3867 6.68945L49.6133 6.68945C50.6851 6.68946 51.675 7.26126 52.2109 8.18945L66.8242 33.5C67.3601 34.4282 67.3601 35.5718 66.8242 36.5L52.2109 61.8105C51.675 62.7387 50.6851 63.3105 49.6133 63.3105L20.3867 63.3105C19.3149 63.3105 18.325 62.7387 17.7891 61.8105L3.17578 36.5Z" fill="#282A47" stroke="url(#paint0_linear_39_1226)" stroke-width="4"/>
<path fill-rule="evenodd" clip-rule="evenodd" d="M38.4827 20.4199C37.8854 20.2407 37.2546 20.2037 36.6405 20.3117C36.0264 20.4197 35.4461 20.6697 34.9458 21.0419C34.4456 21.414 34.0392 21.898 33.7593 22.4551C33.4793 23.0122 33.3334 23.6271 33.3333 24.2506V43.7492C33.3334 44.3727 33.4793 44.9876 33.7593 45.5447C34.0392 46.1018 34.4456 46.5858 34.9458 46.9579C35.4461 47.3301 36.0264 47.5801 36.6405 47.6881C37.2546 47.7961 37.8854 47.7591 38.4827 47.5799L46.4827 45.1799C47.3065 44.9328 48.0288 44.4266 48.5423 43.7366C49.0558 43.0465 49.3332 42.2094 49.3333 41.3492V26.6506C49.3332 25.7904 49.0558 24.9532 48.5423 24.2632C48.0288 23.5732 47.3065 23.067 46.4827 22.8199L38.4827 20.4199ZM32 23.3332C32 22.9796 31.8595 22.6405 31.6095 22.3904C31.3594 22.1404 31.0203 21.9999 30.6667 21.9999H26.6667C25.6058 21.9999 24.5884 22.4213 23.8382 23.1715C23.0881 23.9216 22.6667 24.939 22.6667 25.9999V27.3332C22.6667 27.6869 22.8071 28.026 23.0572 28.276C23.3072 28.5261 23.6464 28.6666 24 28.6666C24.3536 28.6666 24.6928 28.5261 24.9428 28.276C25.1929 28.026 25.3333 27.6869 25.3333 27.3332V25.9999C25.3333 25.6463 25.4738 25.3071 25.7239 25.0571C25.9739 24.807 26.313 24.6666 26.6667 24.6666H30.6667C31.0203 24.6666 31.3594 24.5261 31.6095 24.276C31.8595 24.026 32 23.6869 32 23.3332ZM24 39.3332C23.6464 39.3332 23.3072 39.4737 23.0572 39.7238C22.8071 39.9738 22.6667 40.3129 22.6667 40.6666V41.9999C22.6667 43.0608 23.0881 44.0782 23.8382 44.8283C24.5884 45.5785 25.6058 45.9999 26.6667 45.9999H30.6667C31.0203 45.9999 31.3594 45.8594 31.6095 45.6094C31.8595 45.3593 32 45.0202 32 44.6666C32 44.3129 31.8595 43.9738 31.6095 43.7238C31.3594 43.4737 31.0203 43.3332 30.6667 43.3332H26.6667C26.313 43.3332 25.9739 43.1928 25.7239 42.9427C25.4738 42.6927 25.3333 42.3535 25.3333 41.9999V40.6666C25.3333 40.3129 25.1929 39.9738 24.9428 39.7238C24.6928 39.4737 24.3536 39.3332 24 39.3332ZM40 32.6666C40.3536 32.6666 40.6928 32.807 40.9428 33.0571C41.1929 33.3071 41.3333 33.6463 41.3333 33.9999C41.3333 34.3535 41.1929 34.6927 40.9428 34.9427C40.6928 35.1928 40.3536 35.3332 40 35.3332H39.9987C39.645 35.3332 39.3059 35.1928 39.0559 34.9427C38.8058 34.6927 38.6653 34.3535 38.6653 33.9999C38.6653 33.6463 38.8058 33.3071 39.0559 33.0571C39.3059 32.807 39.645 32.6666 39.9987 32.6666H40Z" fill="#B1ABAE"/>
<path d="M30.6667 33.9999H24M24 33.9999L26.6667 31.3333M24 33.9999L26.6667 36.6666" stroke="#B1ABAE" stroke-width="2" stroke-linecap="round" stroke-linejoin="round"/>
<defs>
<linearGradient id="paint0_linear_39_1226" x1="35" y1="70" x2="35" y2="-1.5299e-06" gradientUnits="userSpaceOnUse">
<stop stop-color="#C887C9"/>
<stop offset="0.25" stop-color="#5784BD"/>
<stop offset="0.6" stop-color="#705DDA"/>
<stop offset="0.75" stop-color="#5784BD"/>
<stop offset="1" stop-color="#73E0A7"/>
</linearGradient>
</defs>
</svg>
