<svg width="115" height="115" viewBox="0 0 115 115" fill="none" xmlns="http://www.w3.org/2000/svg">
<path d="M4.61914 61.5C3.19008 59.0248 3.19008 55.9752 4.61914 53.5L27.5957 13.7031C29.0248 11.2282 31.6655 9.70315 34.5234 9.70312L80.4766 9.70312C83.3345 9.70314 85.9752 11.2282 87.4043 13.7031L110.381 53.5C111.81 55.9752 111.81 59.0248 110.381 61.5L87.4043 101.297C85.9752 103.772 83.3345 105.297 80.4766 105.297L34.5234 105.297C31.6655 105.297 29.0248 103.772 27.5957 101.297L4.61914 61.5Z" fill="#282A47" stroke="url(#paint0_linear_179_157633)" stroke-width="4"/>
<path d="M12 93.3527V112.214H100.898L103 107.862V89H15.64L12 93.3527Z" fill="#18192D"/>
<path d="M13.5293 93.9329V111.286H98.6925L100.706 107.281V89.9285H17.0164L13.5293 93.9329Z" stroke="white" stroke-opacity="0.7" stroke-width="0.464286"/>
<path d="M19.9526 96.6497H21.3346L23.3695 102.466L25.4043 96.6497H26.7863L23.9244 104.572H22.8145L19.9526 96.6497ZM19.2072 96.6497H20.5838L20.834 102.319V104.572H19.2072V96.6497ZM26.1552 96.6497H27.5372V104.572H25.9049V102.319L26.1552 96.6497ZM32.287 98.0044L30.1324 104.572H28.3968L31.3403 96.6497H32.4448L32.287 98.0044ZM34.0771 104.572L31.917 98.0044L31.7429 96.6497H32.8583L35.8181 104.572H34.0771ZM33.9791 101.623V102.901H29.7951V101.623H33.9791ZM36.5526 96.6497H39.507C40.1128 96.6497 40.6333 96.7403 41.0685 96.9217C41.5074 97.1031 41.8448 97.3715 42.0805 97.7269C42.3163 98.0824 42.4342 98.5195 42.4342 99.0382C42.4342 99.4626 42.3617 99.8271 42.2166 100.132C42.0751 100.433 41.8738 100.685 41.6126 100.888C41.3551 101.088 41.0522 101.247 40.704 101.367L40.1871 101.639H37.619L37.6082 100.366H39.5179C39.8045 100.366 40.042 100.315 40.2307 100.213C40.4193 100.112 40.5607 99.9704 40.655 99.789C40.753 99.6077 40.8019 99.3973 40.8019 99.1579C40.8019 98.904 40.7548 98.6845 40.6605 98.4995C40.5662 98.3146 40.4229 98.1731 40.2307 98.0752C40.0384 97.9772 39.7972 97.9283 39.507 97.9283H38.1849V104.572H36.5526V96.6497ZM40.9815 104.572L39.1751 101.04L40.8999 101.03L42.728 104.495V104.572H40.9815ZM45.3233 96.6497V104.572H43.691V96.6497H45.3233ZM50.0677 96.6497L46.9283 100.562L45.1165 102.509L44.8227 100.964L46.0469 99.2885L48.0655 96.6497H50.0677ZM48.2124 104.572L45.8783 100.91L47.0861 99.8978L50.1439 104.572H48.2124ZM56.0907 103.298V104.572H51.8741V103.298H56.0907ZM52.4073 96.6497V104.572H50.775V96.6497H52.4073ZM55.5412 99.8761V101.117H51.8741V99.8761H55.5412ZM56.0853 96.6497V97.9283H51.8741V96.6497H56.0853ZM60.6937 96.6497V104.572H59.0669V96.6497H60.6937ZM63.1312 96.6497V97.9283H56.6675V96.6497H63.1312ZM67.1465 101.748H65.128V100.475H67.1465C67.4585 100.475 67.7124 100.424 67.9083 100.322C68.1041 100.217 68.2474 100.072 68.3381 99.887C68.4288 99.702 68.4741 99.4934 68.4741 99.2613C68.4741 99.0255 68.4288 98.806 68.3381 98.6029C68.2474 98.3998 68.1041 98.2366 67.9083 98.1132C67.7124 97.9899 67.4585 97.9283 67.1465 97.9283H65.6938V104.572H64.0616V96.6497H67.1465C67.7668 96.6497 68.2982 96.7621 68.7407 96.987C69.1869 97.2083 69.5278 97.5148 69.7636 97.9065C69.9994 98.2982 70.1172 98.7462 70.1172 99.2504C70.1172 99.7618 69.9994 100.204 69.7636 100.578C69.5278 100.952 69.1869 101.24 68.7407 101.443C68.2982 101.646 67.7668 101.748 67.1465 101.748ZM76.3361 103.298V104.572H72.348V103.298H76.3361ZM72.8757 96.6497V104.572H71.2435V96.6497H72.8757ZM80.6018 98.0044L78.4472 104.572H76.7115L79.655 96.6497H80.7595L80.6018 98.0044ZM82.3918 104.572L80.2318 98.0044L80.0577 96.6497H81.173L84.1329 104.572H82.3918ZM82.2939 101.623V102.901H78.1098V101.623H82.2939ZM89.3615 101.944H90.9883C90.9557 102.477 90.8088 102.95 90.5476 103.364C90.2901 103.777 89.9292 104.1 89.4649 104.332C89.0042 104.564 88.4493 104.68 87.8 104.68C87.2922 104.68 86.837 104.593 86.4343 104.419C86.0317 104.241 85.6871 103.988 85.4006 103.657C85.1177 103.327 84.9018 102.928 84.7531 102.46C84.6044 101.993 84.53 101.468 84.53 100.888V100.339C84.53 99.7582 84.6062 99.2341 84.7586 98.7661C84.9145 98.2946 85.1358 97.8938 85.4223 97.5637C85.7125 97.2336 86.0589 96.9797 86.4615 96.802C86.8642 96.6243 87.3139 96.5354 87.8109 96.5354C88.471 96.5354 89.0278 96.6551 89.4812 96.8945C89.9383 97.1339 90.2919 97.464 90.5422 97.8847C90.7961 98.3055 90.9484 98.7843 90.9992 99.3211H89.367C89.3488 99.0019 89.2853 98.7317 89.1765 98.5104C89.0677 98.2855 88.9027 98.1169 88.6814 98.0044C88.4638 97.8884 88.1736 97.8303 87.8109 97.8303C87.5388 97.8303 87.3013 97.8811 87.0981 97.9827C86.895 98.0842 86.7245 98.2384 86.5867 98.4451C86.4489 98.6519 86.3455 98.9131 86.2766 99.2286C86.2113 99.5406 86.1786 99.9069 86.1786 100.328V100.888C86.1786 101.298 86.2095 101.659 86.2711 101.971C86.3328 102.279 86.4271 102.54 86.554 102.754C86.6846 102.965 86.8515 103.124 87.0546 103.233C87.2614 103.338 87.5098 103.391 87.8 103.391C88.141 103.391 88.4221 103.336 88.6433 103.228C88.8646 103.119 89.0333 102.957 89.1493 102.743C89.269 102.529 89.3398 102.263 89.3615 101.944ZM97.3759 103.298V104.572H93.1592V103.298H97.3759ZM93.6924 96.6497V104.572H92.0602V96.6497H93.6924ZM96.8264 99.8761V101.117H93.1592V99.8761H96.8264ZM97.3704 96.6497V97.9283H93.1592V96.6497H97.3704Z" fill="white"/>
<path d="M28 38.3333H89.3333V65.1666C89.3333 73.6349 82.4684 80.4999 74 80.4999H43.3333C34.865 80.4999 28 73.6349 28 65.1666V38.3333Z" fill="url(#paint1_linear_179_157633)"/>
<path d="M51 70.9166C51 65.6239 55.2906 61.3333 60.5833 61.3333C65.8761 61.3333 70.1667 65.6239 70.1667 70.9166V80.4999H51V70.9166Z" fill="url(#paint2_linear_179_157633)" fill-opacity="0.8"/>
<path d="M37.9667 23.69L28.4907 35.0597C28.1726 35.4402 27.9989 35.9207 28 36.4167V42.1667C28 45.2167 29.2116 48.1417 31.3683 50.2984C33.5249 52.4551 36.45 53.6667 39.5 53.6667C42.55 53.6667 45.4751 52.4551 47.6317 50.2984C49.7884 48.1417 51 45.2167 51 42.1667V36.4167H49.0833L52.9167 23H39.4387C39.1577 23.0001 38.8803 23.062 38.6259 23.1812C38.3715 23.3004 38.1465 23.4741 37.9667 23.69Z" fill="url(#paint3_linear_179_157633)"/>
<path d="M64.4167 23L68.25 36.4167H66.3333V42.1667C66.3333 45.2167 67.5449 48.1417 69.7016 50.2984C71.8583 52.4551 74.7833 53.6667 77.8333 53.6667C80.8833 53.6667 83.8084 52.4551 85.9651 50.2984C88.1217 48.1417 89.3333 45.2167 89.3333 42.1667V36.4167C89.3345 35.9207 89.1607 35.4402 88.8427 35.0597L79.3667 23.69C79.1869 23.4741 78.9618 23.3004 78.7074 23.1812C78.4531 23.062 78.1756 23.0001 77.8947 23H64.4167Z" fill="url(#paint4_linear_179_157633)"/>
<path d="M51.345 23L47.1667 36.4167V43.125C47.1667 48.9478 52.3148 53.6667 58.6667 53.6667C65.0185 53.6667 70.1667 48.9478 70.1667 43.125V36.4167L65.9883 23H51.345Z" fill="url(#paint5_linear_179_157633)"/>
<defs>
<linearGradient id="paint0_linear_179_157633" x1="57.5" y1="115" x2="57.5" y2="5.11599e-06" gradientUnits="userSpaceOnUse">
<stop stop-color="#C887C9"/>
<stop offset="0.25" stop-color="#5784BD"/>
<stop offset="0.6" stop-color="#705DDA"/>
<stop offset="0.75" stop-color="#5784BD"/>
<stop offset="1" stop-color="#73E0A7"/>
</linearGradient>
<linearGradient id="paint1_linear_179_157633" x1="43.3333" y1="42.1666" x2="50.0972" y2="82.7496" gradientUnits="userSpaceOnUse">
<stop offset="0.312" stop-color="#29C3FF"/>
<stop offset="1" stop-color="#0094F0"/>
</linearGradient>
<linearGradient id="paint2_linear_179_157633" x1="51.6862" y1="64.9284" x2="64.9143" y2="78.6688" gradientUnits="userSpaceOnUse">
<stop stop-color="#0067BF"/>
<stop offset="1" stop-color="#003580"/>
</linearGradient>
<linearGradient id="paint3_linear_179_157633" x1="39.5" y1="23" x2="39.5" y2="36.4167" gradientUnits="userSpaceOnUse">
<stop stop-color="#FB6F7B"/>
<stop offset="1" stop-color="#D7257D"/>
</linearGradient>
<linearGradient id="paint4_linear_179_157633" x1="75.9167" y1="23" x2="75.9167" y2="36.4167" gradientUnits="userSpaceOnUse">
<stop stop-color="#FB6F7B"/>
<stop offset="1" stop-color="#D7257D"/>
</linearGradient>
<linearGradient id="paint5_linear_179_157633" x1="58.6667" y1="23" x2="58.6667" y2="36.4167" gradientUnits="userSpaceOnUse">
<stop offset="0.304" stop-color="#FF9FB2"/>
<stop offset="1" stop-color="#F97DBD"/>
</linearGradient>
</defs>
</svg>
