<svg width="16" height="16" viewBox="0 0 16 16" fill="none" xmlns="http://www.w3.org/2000/svg">
<path d="M7.96241 6.68244C7.52552 6.68244 7.11638 6.85194 6.80661 7.16172C6.4983 7.47149 6.32734 7.88062 6.32734 8.31752C6.32734 8.75441 6.4983 9.16355 6.80661 9.47332C7.11638 9.78163 7.52552 9.95259 7.96241 9.95259C8.39931 9.95259 8.80844 9.78163 9.11821 9.47332C9.42653 9.16355 9.59749 8.75441 9.59749 8.31752C9.59749 7.88062 9.42653 7.47149 9.11821 7.16172C8.96691 7.00925 8.78682 6.88837 8.58841 6.80609C8.38999 6.72382 8.17721 6.68179 7.96241 6.68244ZM13.9869 10.1235L13.0313 9.30674C13.0766 9.02912 13.1 8.74565 13.1 8.46364C13.1 8.18163 13.0766 7.89669 13.0313 7.62053L13.9869 6.80372C14.0591 6.74192 14.1108 6.65961 14.135 6.56774C14.1593 6.47586 14.155 6.37877 14.1228 6.28938L14.1096 6.25139C13.8466 5.51596 13.4526 4.83426 12.9465 4.23933L12.9202 4.20865C12.8588 4.13639 12.7769 4.08446 12.6853 4.05968C12.5938 4.0349 12.4969 4.03844 12.4074 4.06983L11.2209 4.49212C10.7825 4.13267 10.2945 3.8492 9.76552 3.65193L9.53612 2.41138C9.51881 2.31793 9.47347 2.23195 9.40614 2.16488C9.3388 2.0978 9.25265 2.0528 9.15913 2.03586L9.11968 2.02855C8.35986 1.8912 7.55912 1.8912 6.7993 2.02855L6.75985 2.03586C6.66633 2.0528 6.58018 2.0978 6.51284 2.16488C6.44551 2.23195 6.40017 2.31793 6.38287 2.41138L6.152 3.65778C5.62805 3.8566 5.13996 4.13939 4.70688 4.49504L3.51163 4.06983C3.42215 4.03819 3.32516 4.03452 3.23355 4.05931C3.14194 4.08411 3.06005 4.13619 2.99875 4.20865L2.97245 4.23933C2.46729 4.83489 2.07332 5.51642 1.80934 6.25139L1.79619 6.28938C1.73043 6.47203 1.7845 6.6766 1.93208 6.80372L2.89939 7.6293C2.85409 7.904 2.83217 8.18455 2.83217 8.46218C2.83217 8.74272 2.85409 9.02327 2.89939 9.29505L1.935 10.1206C1.86281 10.1824 1.81114 10.2647 1.78687 10.3566C1.7626 10.4485 1.76687 10.5456 1.79911 10.635L1.81226 10.673C2.07674 11.4079 2.46687 12.0874 2.97537 12.685L3.00167 12.7157C3.06312 12.788 3.14502 12.8399 3.23657 12.8647C3.32813 12.8895 3.42505 12.8859 3.51455 12.8545L4.7098 12.4293C5.14524 12.7873 5.63035 13.0708 6.15492 13.2666L6.38579 14.513C6.4031 14.6064 6.44843 14.6924 6.51577 14.7595C6.5831 14.8265 6.66925 14.8715 6.76277 14.8885L6.80223 14.8958C7.56952 15.0339 8.3553 15.0339 9.1226 14.8958L9.16205 14.8885C9.25557 14.8715 9.34172 14.8265 9.40906 14.7595C9.4764 14.6924 9.52173 14.6064 9.53904 14.513L9.76844 13.2724C10.2974 13.0737 10.7854 12.7917 11.2238 12.4322L12.4103 12.8545C12.4998 12.8862 12.5967 12.8898 12.6883 12.865C12.78 12.8402 12.8619 12.7882 12.9232 12.7157L12.9495 12.685C13.458 12.0845 13.8481 11.4079 14.1126 10.673L14.1257 10.635C14.1885 10.4538 14.1345 10.2507 13.9869 10.1235ZM7.96241 10.8863C6.5436 10.8863 5.39364 9.73633 5.39364 8.31752C5.39364 6.8987 6.5436 5.74874 7.96241 5.74874C9.38123 5.74874 10.5312 6.8987 10.5312 8.31752C10.5312 9.73633 9.38123 10.8863 7.96241 10.8863Z" fill="url(#paint0_linear_139_29907)"/>
<defs>
<linearGradient id="paint0_linear_139_29907" x1="4.8643" y1="3.11407" x2="7.97081" y2="15.2513" gradientUnits="userSpaceOnUse">
<stop offset="0.312" stop-color="#29C3FF"/>
<stop offset="1" stop-color="#0094F0"/>
</linearGradient>
</defs>
</svg>
