<svg width="70" height="71" viewBox="0 0 70 71" fill="none" xmlns="http://www.w3.org/2000/svg">
<path d="M3.17578 36.5C2.67344 35.6299 2.64161 34.5705 3.08106 33.6768L3.17578 33.5L17.7891 8.18945C18.325 7.26126 19.3149 6.68946 20.3867 6.68945L49.6133 6.68945C50.6851 6.68946 51.675 7.26126 52.2109 8.18945L66.8242 33.5C67.3601 34.4282 67.3601 35.5718 66.8242 36.5L52.2109 61.8105C51.675 62.7387 50.6851 63.3105 49.6133 63.3105L20.3867 63.3105C19.3149 63.3105 18.325 62.7387 17.7891 61.8105L3.17578 36.5Z" fill="#282A47" stroke="url(#paint0_linear_39_365)" stroke-width="4"/>
<path d="M36.0145 26.4434C35.1385 26.4434 34.3182 26.7832 33.6971 27.4043C33.079 28.0254 32.7362 28.8457 32.7362 29.7217C32.7362 30.5977 33.079 31.418 33.6971 32.0391C34.3182 32.6572 35.1385 33 36.0145 33C36.8905 33 37.7108 32.6572 38.3319 32.0391C38.9501 31.418 39.2928 30.5977 39.2928 29.7217C39.2928 28.8457 38.9501 28.0254 38.3319 27.4043C38.0285 27.0986 37.6675 26.8562 37.2696 26.6913C36.8718 26.5263 36.4452 26.442 36.0145 26.4434ZM48.0936 33.3428L46.1776 31.7051C46.2684 31.1484 46.3153 30.5801 46.3153 30.0146C46.3153 29.4492 46.2684 28.8779 46.1776 28.3242L48.0936 26.6865C48.2384 26.5626 48.3419 26.3976 48.3906 26.2134C48.4393 26.0292 48.4307 25.8345 48.3661 25.6553L48.3397 25.5791C47.8124 24.1046 47.0223 22.7378 46.0077 21.5449L45.9549 21.4834C45.8317 21.3385 45.6675 21.2344 45.484 21.1847C45.3004 21.135 45.1061 21.1421 44.9266 21.2051L42.5477 22.0518C41.6688 21.3311 40.6903 20.7627 39.6297 20.3672L39.1698 17.8799C39.1351 17.6925 39.0442 17.5201 38.9092 17.3856C38.7742 17.2512 38.6014 17.1609 38.4139 17.127L38.3348 17.1123C36.8114 16.8369 35.2059 16.8369 33.6825 17.1123L33.6034 17.127C33.4159 17.1609 33.2431 17.2512 33.1081 17.3856C32.9731 17.5201 32.8822 17.6925 32.8475 17.8799L32.3846 20.3789C31.3341 20.7775 30.3555 21.3445 29.4872 22.0576L27.0907 21.2051C26.9113 21.1416 26.7168 21.1343 26.5332 21.184C26.3495 21.2337 26.1853 21.3381 26.0624 21.4834L26.0096 21.5449C24.9968 22.739 24.2069 24.1055 23.6776 25.5791L23.6512 25.6553C23.5194 26.0215 23.6278 26.4316 23.9237 26.6865L25.8631 28.3418C25.7723 28.8926 25.7284 29.4551 25.7284 30.0117C25.7284 30.5742 25.7723 31.1367 25.8631 31.6816L23.9296 33.3369C23.7848 33.4608 23.6812 33.6259 23.6326 33.8101C23.5839 33.9943 23.5924 34.1889 23.6571 34.3682L23.6835 34.4443C24.2137 35.918 24.996 37.2803 26.0155 38.4785L26.0682 38.54C26.1914 38.6849 26.3556 38.789 26.5392 38.8387C26.7228 38.8884 26.9171 38.8813 27.0965 38.8184L29.493 37.9658C30.3661 38.6836 31.3387 39.252 32.3905 39.6445L32.8534 42.1436C32.8881 42.3309 32.979 42.5033 33.114 42.6378C33.249 42.7723 33.4217 42.8625 33.6092 42.8965L33.6883 42.9111C35.2268 43.188 36.8023 43.188 38.3407 42.9111L38.4198 42.8965C38.6073 42.8625 38.78 42.7723 38.915 42.6378C39.05 42.5033 39.1409 42.3309 39.1756 42.1436L39.6356 39.6563C40.6962 39.2578 41.6747 38.6924 42.5536 37.9717L44.9325 38.8184C45.1119 38.8818 45.3063 38.8892 45.49 38.8395C45.6737 38.7897 45.8379 38.6853 45.9608 38.54L46.0135 38.4785C47.0331 37.2744 47.8153 35.918 48.3456 34.4443L48.3719 34.3682C48.4979 34.0049 48.3895 33.5977 48.0936 33.3428ZM36.0145 34.8721C33.1698 34.8721 30.8641 32.5664 30.8641 29.7217C30.8641 26.877 33.1698 24.5713 36.0145 24.5713C38.8592 24.5713 41.1649 26.877 41.1649 29.7217C41.1649 32.5664 38.8592 34.8721 36.0145 34.8721Z" fill="url(#paint1_linear_39_365)"/>
<path d="M13 57.0612V70.3265H56.127L57.1465 67.2653V54H14.7659L13 57.0612Z" fill="#18192D"/>
<path d="M13.7419 57.4694V69.6735H55.0568L56.0335 66.8572V54.6531H15.4336L13.7419 57.4694Z" stroke="white" stroke-opacity="0.7" stroke-width="0.326531"/>
<path d="M20.4688 63.4302C20.4688 63.3286 20.4531 63.2375 20.4219 63.1567C20.3932 63.0734 20.3385 62.9979 20.2578 62.9302C20.1771 62.8599 20.0638 62.7909 19.918 62.7231C19.7721 62.6554 19.5833 62.5851 19.3516 62.5122C19.0938 62.4289 18.849 62.3351 18.6172 62.231C18.388 62.1268 18.1849 62.0057 18.0078 61.8677C17.8333 61.7271 17.6953 61.5643 17.5938 61.3794C17.4948 61.1945 17.4453 60.9797 17.4453 60.7349C17.4453 60.4979 17.4974 60.283 17.6016 60.0903C17.7057 59.895 17.8516 59.7284 18.0391 59.5903C18.2266 59.4497 18.4479 59.3416 18.7031 59.2661C18.9609 59.1906 19.2435 59.1528 19.5508 59.1528C19.9701 59.1528 20.3359 59.2284 20.6484 59.3794C20.9609 59.5304 21.2031 59.7375 21.375 60.0005C21.5495 60.2635 21.6367 60.5643 21.6367 60.9028H20.4727C20.4727 60.7362 20.4375 60.5903 20.3672 60.4653C20.2995 60.3377 20.1953 60.2375 20.0547 60.1646C19.9167 60.0916 19.7422 60.0552 19.5312 60.0552C19.3281 60.0552 19.1589 60.0864 19.0234 60.1489C18.888 60.2088 18.7865 60.2909 18.7188 60.395C18.651 60.4966 18.6172 60.6112 18.6172 60.7388C18.6172 60.8351 18.6406 60.9224 18.6875 61.0005C18.737 61.0786 18.8099 61.1515 18.9062 61.2192C19.0026 61.2869 19.1211 61.3507 19.2617 61.4106C19.4023 61.4705 19.5651 61.5291 19.75 61.5864C20.0599 61.6802 20.332 61.7856 20.5664 61.9028C20.8034 62.02 21.0013 62.1515 21.1602 62.2974C21.319 62.4432 21.4388 62.6086 21.5195 62.7935C21.6003 62.9784 21.6406 63.188 21.6406 63.4224C21.6406 63.6698 21.5924 63.8911 21.4961 64.0864C21.3997 64.2817 21.2604 64.4471 21.0781 64.5825C20.8958 64.7179 20.6784 64.8208 20.4258 64.8911C20.1732 64.9614 19.8906 64.9966 19.5781 64.9966C19.2969 64.9966 19.0195 64.9601 18.7461 64.8872C18.4727 64.8117 18.224 64.6984 18 64.5474C17.7786 64.3963 17.6016 64.2036 17.4688 63.9692C17.3359 63.7349 17.2695 63.4575 17.2695 63.1372H18.4453C18.4453 63.3143 18.4727 63.464 18.5273 63.5864C18.582 63.7088 18.6589 63.8078 18.7578 63.8833C18.8594 63.9588 18.9792 64.0135 19.1172 64.0474C19.2578 64.0812 19.4115 64.0981 19.5781 64.0981C19.7812 64.0981 19.9479 64.0695 20.0781 64.0122C20.2109 63.9549 20.3086 63.8755 20.3711 63.7739C20.4362 63.6724 20.4688 63.5578 20.4688 63.4302ZM26.2539 64.0044V64.9185H23.2266V64.0044H26.2539ZM23.6094 59.231V64.9185H22.4375V59.231H23.6094ZM25.8594 61.5474V62.438H23.2266V61.5474H25.8594ZM26.25 59.231V60.1489H23.2266V59.231H26.25ZM29.5586 59.231V64.9185H28.3906V59.231H29.5586ZM31.3086 59.231V60.1489H26.668V59.231H31.3086ZM34.582 59.231V64.9185H33.4141V59.231H34.582ZM36.332 59.231V60.1489H31.6914V59.231H36.332ZM38.2461 59.231V64.9185H37.0781V59.231H38.2461ZM43.9727 59.231V64.9185H42.8008L40.5156 61.106V64.9185H39.3438V59.231H40.5156L42.8047 63.0474V59.231H43.9727ZM49.5 61.9458V64.1997C49.4115 64.3065 49.2747 64.4224 49.0898 64.5474C48.9049 64.6698 48.6667 64.7752 48.375 64.8638C48.0833 64.9523 47.7305 64.9966 47.3164 64.9966C46.9492 64.9966 46.6146 64.9367 46.3125 64.8169C46.0104 64.6945 45.75 64.5161 45.5312 64.2817C45.3151 64.0474 45.1484 63.7609 45.0312 63.4224C44.9141 63.0812 44.8555 62.6919 44.8555 62.2544V61.8989C44.8555 61.4614 44.9115 61.0721 45.0234 60.731C45.138 60.3898 45.3008 60.1021 45.5117 59.8677C45.7227 59.6333 45.974 59.4549 46.2656 59.3325C46.5573 59.2101 46.8815 59.1489 47.2383 59.1489C47.7331 59.1489 48.1393 59.2297 48.457 59.3911C48.7747 59.55 49.0169 59.7713 49.1836 60.0552C49.3529 60.3364 49.457 60.6593 49.4961 61.0239H48.3594C48.3307 60.8312 48.276 60.6632 48.1953 60.52C48.1146 60.3768 47.9987 60.2648 47.8477 60.1841C47.6992 60.1034 47.5065 60.063 47.2695 60.063C47.0742 60.063 46.8997 60.1034 46.7461 60.1841C46.5951 60.2622 46.4674 60.3781 46.3633 60.5317C46.2591 60.6854 46.1797 60.8755 46.125 61.1021C46.0703 61.3286 46.043 61.5916 46.043 61.8911V62.2544C46.043 62.5513 46.0716 62.8143 46.1289 63.0435C46.1862 63.27 46.2708 63.4614 46.3828 63.6177C46.4974 63.7713 46.638 63.8872 46.8047 63.9653C46.9714 64.0435 47.1654 64.0825 47.3867 64.0825C47.5716 64.0825 47.7253 64.0669 47.8477 64.0356C47.9727 64.0044 48.0729 63.9666 48.1484 63.9224C48.2266 63.8755 48.2865 63.8312 48.3281 63.7896V62.7817H47.2578V61.9458H49.5ZM53.4062 63.4302C53.4062 63.3286 53.3906 63.2375 53.3594 63.1567C53.3307 63.0734 53.276 62.9979 53.1953 62.9302C53.1146 62.8599 53.0013 62.7909 52.8555 62.7231C52.7096 62.6554 52.5208 62.5851 52.2891 62.5122C52.0312 62.4289 51.7865 62.3351 51.5547 62.231C51.3255 62.1268 51.1224 62.0057 50.9453 61.8677C50.7708 61.7271 50.6328 61.5643 50.5312 61.3794C50.4323 61.1945 50.3828 60.9797 50.3828 60.7349C50.3828 60.4979 50.4349 60.283 50.5391 60.0903C50.6432 59.895 50.7891 59.7284 50.9766 59.5903C51.1641 59.4497 51.3854 59.3416 51.6406 59.2661C51.8984 59.1906 52.181 59.1528 52.4883 59.1528C52.9076 59.1528 53.2734 59.2284 53.5859 59.3794C53.8984 59.5304 54.1406 59.7375 54.3125 60.0005C54.487 60.2635 54.5742 60.5643 54.5742 60.9028H53.4102C53.4102 60.7362 53.375 60.5903 53.3047 60.4653C53.237 60.3377 53.1328 60.2375 52.9922 60.1646C52.8542 60.0916 52.6797 60.0552 52.4688 60.0552C52.2656 60.0552 52.0964 60.0864 51.9609 60.1489C51.8255 60.2088 51.724 60.2909 51.6562 60.395C51.5885 60.4966 51.5547 60.6112 51.5547 60.7388C51.5547 60.8351 51.5781 60.9224 51.625 61.0005C51.6745 61.0786 51.7474 61.1515 51.8438 61.2192C51.9401 61.2869 52.0586 61.3507 52.1992 61.4106C52.3398 61.4705 52.5026 61.5291 52.6875 61.5864C52.9974 61.6802 53.2695 61.7856 53.5039 61.9028C53.7409 62.02 53.9388 62.1515 54.0977 62.2974C54.2565 62.4432 54.3763 62.6086 54.457 62.7935C54.5378 62.9784 54.5781 63.188 54.5781 63.4224C54.5781 63.6698 54.5299 63.8911 54.4336 64.0864C54.3372 64.2817 54.1979 64.4471 54.0156 64.5825C53.8333 64.7179 53.6159 64.8208 53.3633 64.8911C53.1107 64.9614 52.8281 64.9966 52.5156 64.9966C52.2344 64.9966 51.957 64.9601 51.6836 64.8872C51.4102 64.8117 51.1615 64.6984 50.9375 64.5474C50.7161 64.3963 50.5391 64.2036 50.4062 63.9692C50.2734 63.7349 50.207 63.4575 50.207 63.1372H51.3828C51.3828 63.3143 51.4102 63.464 51.4648 63.5864C51.5195 63.7088 51.5964 63.8078 51.6953 63.8833C51.7969 63.9588 51.9167 64.0135 52.0547 64.0474C52.1953 64.0812 52.349 64.0981 52.5156 64.0981C52.7188 64.0981 52.8854 64.0695 53.0156 64.0122C53.1484 63.9549 53.2461 63.8755 53.3086 63.7739C53.3737 63.6724 53.4062 63.5578 53.4062 63.4302Z" fill="white"/>
<defs>
<linearGradient id="paint0_linear_39_365" x1="35" y1="70" x2="35" y2="-1.5299e-06" gradientUnits="userSpaceOnUse">
<stop stop-color="#C887C9"/>
<stop offset="0.25" stop-color="#5784BD"/>
<stop offset="0.6" stop-color="#705DDA"/>
<stop offset="0.75" stop-color="#5784BD"/>
<stop offset="1" stop-color="#73E0A7"/>
</linearGradient>
<linearGradient id="paint1_linear_39_365" x1="29.8028" y1="19.2888" x2="36.0313" y2="43.6239" gradientUnits="userSpaceOnUse">
<stop offset="0.312" stop-color="#29C3FF"/>
<stop offset="1" stop-color="#0094F0"/>
</linearGradient>
</defs>
</svg>
