<svg width="44" height="128" viewBox="0 0 44 128" fill="none" xmlns="http://www.w3.org/2000/svg">
<rect x="0.5" y="0.5" width="43" height="126.63" rx="21.5" fill="#282A47" fill-opacity="0.55"/>
<rect x="0.5" y="0.5" width="43" height="126.63" rx="21.5" stroke="#686B93"/>
<mask id="path-2-inside-1_139_32957" fill="white">
<path d="M22.0005 15.5107L27.5122 10L32.8149 10.002V15.3047L27.3042 20.8145L28.6489 22.1592L29.8862 20.9219L31.3003 22.3359L28.8247 24.8105L32.8149 28.7998V31.6299H29.9868L25.9976 27.6396L23.522 30.1143L22.1079 28.7002L23.3462 27.4619L22.0015 26.1172L20.6558 27.4639L21.8931 28.7012L20.479 30.1152L18.0044 27.6396L14.0151 31.6299H11.1851V28.8018L15.1753 24.8115L12.7007 22.3369L14.1147 20.9229L15.353 22.1611L16.6978 20.8145L11.1851 15.3027L11.187 10H16.4897L22.0005 15.5107Z"/>
</mask>
<path d="M22.0005 15.5107L27.5122 10L32.8149 10.002V15.3047L27.3042 20.8145L28.6489 22.1592L29.8862 20.9219L31.3003 22.3359L28.8247 24.8105L32.8149 28.7998V31.6299H29.9868L25.9976 27.6396L23.522 30.1143L22.1079 28.7002L23.3462 27.4619L22.0015 26.1172L20.6558 27.4639L21.8931 28.7012L20.479 30.1152L18.0044 27.6396L14.0151 31.6299H11.1851V28.8018L15.1753 24.8115L12.7007 22.3369L14.1147 20.9229L15.353 22.1611L16.6978 20.8145L11.1851 15.3027L11.187 10H16.4897L22.0005 15.5107Z" fill="#232434"/>
<path d="M22.0005 15.5107L21.6469 15.8643L22.0005 16.2178L22.354 15.8643L22.0005 15.5107ZM27.5122 10L27.5124 9.5L27.3052 9.49992L27.1587 9.64642L27.5122 10ZM32.8149 10.002H33.3149V9.50214L32.8151 9.50195L32.8149 10.002ZM32.8149 15.3047L33.1685 15.6583L33.3149 15.5118V15.3047H32.8149ZM27.3042 20.8145L26.9507 20.4609L26.5971 20.8144L26.9506 21.168L27.3042 20.8145ZM28.6489 22.1592L28.2954 22.5127L28.6489 22.8663L29.0025 22.5127L28.6489 22.1592ZM29.8862 20.9219L30.2398 20.5683L29.8862 20.2148L29.5327 20.5683L29.8862 20.9219ZM31.3003 22.3359L31.6538 22.6896L32.0075 22.336L31.6538 21.9824L31.3003 22.3359ZM28.8247 24.8105L28.4712 24.4569L28.1175 24.8105L28.4712 25.1641L28.8247 24.8105ZM32.8149 28.7998H33.3149V28.5927L33.1685 28.4462L32.8149 28.7998ZM32.8149 31.6299V32.1299H33.3149V31.6299H32.8149ZM29.9868 31.6299L29.6332 31.9834L29.7797 32.1299H29.9868V31.6299ZM25.9976 27.6396L26.3512 27.2861L25.9977 26.9326L25.6441 27.286L25.9976 27.6396ZM23.522 30.1143L23.1684 30.4678L23.5219 30.8213L23.8755 30.4679L23.522 30.1143ZM22.1079 28.7002L21.7544 28.3466L21.4008 28.7002L21.7544 29.0537L22.1079 28.7002ZM23.3462 27.4619L23.6997 27.8155L24.0533 27.4619L23.6997 27.1084L23.3462 27.4619ZM22.0015 26.1172L22.355 25.7636L22.0013 25.41L21.6478 25.7638L22.0015 26.1172ZM20.6558 27.4639L20.3021 27.1104L19.9488 27.464L20.3022 27.8174L20.6558 27.4639ZM21.8931 28.7012L22.2466 29.0547L22.6002 28.7012L22.2466 28.3476L21.8931 28.7012ZM20.479 30.1152L20.1254 30.4687L20.4789 30.8224L20.8326 30.4688L20.479 30.1152ZM18.0044 27.6396L18.358 27.2862L18.0044 26.9324L17.6508 27.2861L18.0044 27.6396ZM14.0151 31.6299V32.1299H14.2223L14.3687 31.9834L14.0151 31.6299ZM11.1851 31.6299H10.6851V32.1299H11.1851V31.6299ZM11.1851 28.8018L10.8315 28.4482L10.6851 28.5947V28.8018H11.1851ZM15.1753 24.8115L15.5288 25.1651L15.8824 24.8115L15.5288 24.458L15.1753 24.8115ZM12.7007 22.3369L12.3471 21.9834L11.9936 22.3369L12.3471 22.6905L12.7007 22.3369ZM14.1147 20.9229L14.4683 20.5693L14.1147 20.2157L13.7612 20.5693L14.1147 20.9229ZM15.353 22.1611L14.9995 22.5147L15.3533 22.8685L15.7068 22.5144L15.353 22.1611ZM16.6978 20.8145L17.0516 21.1677L17.4046 20.8142L17.0513 20.4609L16.6978 20.8145ZM11.1851 15.3027L10.6851 15.3026L10.685 15.5098L10.8315 15.6563L11.1851 15.3027ZM11.187 10V9.5H10.6872L10.687 9.99982L11.187 10ZM16.4897 10L16.8433 9.64645L16.6969 9.5H16.4897V10ZM22.0005 15.5107L22.354 15.8643L27.8657 10.3536L27.5122 10L27.1587 9.64642L21.647 15.1572L22.0005 15.5107ZM27.5122 10L27.512 10.5L32.8148 10.502L32.8149 10.002L32.8151 9.50195L27.5124 9.5L27.5122 10ZM32.8149 10.002H32.3149V15.3047H32.8149H33.3149V10.002H32.8149ZM32.8149 15.3047L32.4614 14.9511L26.9507 20.4609L27.3042 20.8145L27.6577 21.168L33.1685 15.6583L32.8149 15.3047ZM27.3042 20.8145L26.9506 21.168L28.2954 22.5127L28.6489 22.1592L29.0025 21.8056L27.6578 20.4609L27.3042 20.8145ZM28.6489 22.1592L29.0025 22.5127L30.2398 21.2754L29.8862 20.9219L29.5327 20.5683L28.2954 21.8056L28.6489 22.1592ZM29.8862 20.9219L29.5327 21.2754L30.9467 22.6895L31.3003 22.3359L31.6538 21.9824L30.2398 20.5683L29.8862 20.9219ZM31.3003 22.3359L30.9468 21.9823L28.4712 24.4569L28.8247 24.8105L29.1782 25.1642L31.6538 22.6896L31.3003 22.3359ZM28.8247 24.8105L28.4712 25.1641L32.4614 29.1534L32.8149 28.7998L33.1685 28.4462L29.1782 24.457L28.8247 24.8105ZM32.8149 28.7998H32.3149V31.6299H32.8149H33.3149V28.7998H32.8149ZM32.8149 31.6299V31.1299H29.9868V31.6299V32.1299H32.8149V31.6299ZM29.9868 31.6299L30.3404 31.2764L26.3512 27.2861L25.9976 27.6396L25.644 27.9932L29.6332 31.9834L29.9868 31.6299ZM25.9976 27.6396L25.6441 27.286L23.1685 29.7606L23.522 30.1143L23.8755 30.4679L26.351 27.9933L25.9976 27.6396ZM23.522 30.1143L23.8755 29.7607L22.4615 28.3466L22.1079 28.7002L21.7544 29.0537L23.1684 30.4678L23.522 30.1143ZM22.1079 28.7002L22.4615 29.0537L23.6997 27.8155L23.3462 27.4619L22.9926 27.1084L21.7544 28.3466L22.1079 28.7002ZM23.3462 27.4619L23.6997 27.1084L22.355 25.7636L22.0015 26.1172L21.6479 26.4707L22.9926 27.8155L23.3462 27.4619ZM22.0015 26.1172L21.6478 25.7638L20.3021 27.1104L20.6558 27.4639L21.0094 27.8173L22.3551 26.4706L22.0015 26.1172ZM20.6558 27.4639L20.3022 27.8174L21.5395 29.0547L21.8931 28.7012L22.2466 28.3476L21.0093 27.1103L20.6558 27.4639ZM21.8931 28.7012L21.5395 28.3476L20.1255 29.7617L20.479 30.1152L20.8326 30.4688L22.2466 29.0547L21.8931 28.7012ZM20.479 30.1152L20.8326 29.7618L18.358 27.2862L18.0044 27.6396L17.6508 27.9931L20.1254 30.4687L20.479 30.1152ZM18.0044 27.6396L17.6508 27.2861L13.6615 31.2764L14.0151 31.6299L14.3687 31.9834L18.358 27.9932L18.0044 27.6396ZM14.0151 31.6299V31.1299H11.1851V31.6299V32.1299H14.0151V31.6299ZM11.1851 31.6299H11.6851V28.8018H11.1851H10.6851V31.6299H11.1851ZM11.1851 28.8018L11.5386 29.1553L15.5288 25.1651L15.1753 24.8115L14.8217 24.458L10.8315 28.4482L11.1851 28.8018ZM15.1753 24.8115L15.5288 24.458L13.0542 21.9834L12.7007 22.3369L12.3471 22.6905L14.8217 25.1651L15.1753 24.8115ZM12.7007 22.3369L13.0542 22.6905L14.4683 21.2764L14.1147 20.9229L13.7612 20.5693L12.3471 21.9834L12.7007 22.3369ZM14.1147 20.9229L13.7612 21.2764L14.9995 22.5147L15.353 22.1611L15.7066 21.8076L14.4683 20.5693L14.1147 20.9229ZM15.353 22.1611L15.7068 22.5144L17.0516 21.1677L16.6978 20.8145L16.3439 20.4612L14.9992 21.8078L15.353 22.1611ZM16.6978 20.8145L17.0513 20.4609L11.5386 14.9491L11.1851 15.3027L10.8315 15.6563L16.3442 21.168L16.6978 20.8145ZM11.1851 15.3027L11.6851 15.3029L11.687 10.0002L11.187 10L10.687 9.99982L10.6851 15.3026L11.1851 15.3027ZM11.187 10V10.5H16.4897V10V9.5H11.187V10ZM16.4897 10L16.1362 10.3536L21.6469 15.8643L22.0005 15.5107L22.354 15.1572L16.8433 9.64645L16.4897 10Z" fill="#686B93" mask="url(#path-2-inside-1_139_32957)"/>
<mask id="path-4-inside-2_139_32957" fill="white">
<path d="M31 55.6299V61.6299C31 67.1799 27.16 72.3699 22 73.6299C16.84 72.3699 13 67.1799 13 61.6299V55.6299L22 51.6299L31 55.6299Z"/>
</mask>
<path d="M31 55.6299V61.6299C31 67.1799 27.16 72.3699 22 73.6299C16.84 72.3699 13 67.1799 13 61.6299V55.6299L22 51.6299L31 55.6299Z" fill="#232434"/>
<path d="M31 55.6299H31.5V55.3049L31.2031 55.173L31 55.6299ZM22 73.6299L21.8814 74.1156L22 74.1446L22.1186 74.1156L22 73.6299ZM13 55.6299L12.7969 55.173L12.5 55.3049V55.6299H13ZM22 51.6299L22.2031 51.173L22 51.0827L21.7969 51.173L22 51.6299ZM31 55.6299H30.5V61.6299H31H31.5V55.6299H31ZM31 61.6299H30.5C30.5 66.9702 26.798 71.9436 21.8814 73.1442L22 73.6299L22.1186 74.1156C27.522 72.7962 31.5 67.3896 31.5 61.6299H31ZM22 73.6299L22.1186 73.1442C17.202 71.9436 13.5 66.9702 13.5 61.6299H13H12.5C12.5 67.3896 16.478 72.7962 21.8814 74.1156L22 73.6299ZM13 61.6299H13.5V55.6299H13H12.5V61.6299H13ZM13 55.6299L13.2031 56.0868L22.2031 52.0868L22 51.6299L21.7969 51.173L12.7969 55.173L13 55.6299ZM22 51.6299L21.7969 52.0868L30.7969 56.0868L31 55.6299L31.2031 55.173L22.2031 51.173L22 51.6299Z" fill="#686B93" mask="url(#path-4-inside-2_139_32957)"/>
<rect x="13.25" y="93.8799" width="17.5" height="23.5" fill="#232434" stroke="#686B93" stroke-width="0.5"/>
</svg>
